<svg width="38" height="40" viewBox="0 0 38 40" fill="none" xmlns="http://www.w3.org/2000/svg">
<path d="M24.9412 24.9071L22.1497 22.1157C22.8218 21.221 23.1846 20.132 23.1834 19.0131C23.1834 16.1549 20.858 13.8295 17.9998 13.8295C15.1416 13.8295 12.8163 16.1549 12.8163 19.0131C12.8163 21.8712 15.1416 24.1966 17.9998 24.1966C19.1188 24.1978 20.2078 23.835 21.1025 23.163L23.8939 25.9544C24.0352 26.0807 24.2195 26.1481 24.4089 26.1428C24.5984 26.1375 24.7786 26.0599 24.9127 25.9259C25.0467 25.7919 25.1243 25.6116 25.1296 25.4222C25.1349 25.2327 25.0675 25.0484 24.9412 24.9071ZM14.2973 19.0131C14.2973 18.2808 14.5144 17.5649 14.9213 16.956C15.3281 16.3472 15.9064 15.8726 16.5829 15.5924C17.2595 15.3121 18.0039 15.2388 18.7221 15.3817C19.4404 15.5245 20.1001 15.8772 20.6179 16.395C21.1357 16.9128 21.4883 17.5725 21.6312 18.2907C21.7741 19.009 21.7007 19.7534 21.4205 20.43C21.1403 21.1065 20.6657 21.6848 20.0568 22.0916C19.448 22.4984 18.7321 22.7156 17.9998 22.7156C17.0182 22.7144 16.0771 22.3239 15.383 21.6298C14.6889 20.9357 14.2985 19.9947 14.2973 19.0131Z" fill="#2D3748"/>
</svg>
