<svg width="24" height="24" viewBox="0 0 24 24" fill="none" xmlns="http://www.w3.org/2000/svg">
<path d="M15.5924 3.02682C14.6802 2.04198 13.4061 1.49963 11.9999 1.49963C10.5861 1.49963 9.30786 2.0387 8.39989 3.01745C7.48208 4.00698 7.03489 5.35182 7.13989 6.80401C7.34802 9.66901 9.52817 11.9996 11.9999 11.9996C14.4716 11.9996 16.648 9.66948 16.8594 6.80494C16.9658 5.36588 16.5158 4.02385 15.5924 3.02682Z" fill="white"/>
<path d="M20.2499 22.4986H3.74993C3.53396 22.5014 3.32008 22.456 3.12385 22.3658C2.92762 22.2755 2.75398 22.1426 2.61556 21.9768C2.31087 21.6126 2.18806 21.1153 2.27899 20.6123C2.67462 18.4176 3.90931 16.574 5.84993 15.2798C7.57399 14.1309 9.7579 13.4986 11.9999 13.4986C14.242 13.4986 16.4259 14.1314 18.1499 15.2798C20.0905 16.5736 21.3252 18.4172 21.7209 20.6118C21.8118 21.1148 21.689 21.6122 21.3843 21.9764C21.2459 22.1423 21.0723 22.2752 20.8761 22.3655C20.6798 22.4559 20.4659 22.5013 20.2499 22.4986Z" fill="white"/>
</svg>
