<svg width="16" height="16" viewBox="0 0 16 16" fill="none" xmlns="http://www.w3.org/2000/svg">
<path d="M7.452 13.0459C7.51316 13.1347 7.595 13.2074 7.69046 13.2576C7.78593 13.3077 7.89216 13.3339 8 13.3339C8.10785 13.3339 8.21408 13.3077 8.30954 13.2576C8.40501 13.2074 8.48684 13.1347 8.548 13.0459L14.548 4.37925C14.6175 4.27929 14.6582 4.16221 14.6658 4.04072C14.6733 3.91924 14.6475 3.798 14.591 3.69018C14.5345 3.58236 14.4496 3.49208 14.3454 3.42916C14.2412 3.36623 14.1217 3.33306 14 3.33325H2C1.87857 3.33375 1.75956 3.36735 1.65579 3.43043C1.55202 3.49351 1.46741 3.58368 1.41105 3.69125C1.35469 3.79882 1.32873 3.91972 1.33594 4.04094C1.34316 4.16216 1.38328 4.27913 1.452 4.37925L7.452 13.0459Z" fill="black"/>
</svg>
