<svg width="15" height="15" viewBox="0 0 15 15" fill="none" xmlns="http://www.w3.org/2000/svg">
<g clip-path="url(#clip0_0_335)">
<path d="M7.66289 2.96751C7.61927 2.92578 7.56124 2.9025 7.50088 2.9025C7.44052 2.9025 7.38248 2.92578 7.33887 2.96751L1.94531 8.11995C1.92241 8.14186 1.90418 8.16819 1.89175 8.19735C1.87931 8.2265 1.87291 8.25788 1.87295 8.28958L1.87207 13.1253C1.87207 13.374 1.97084 13.6124 2.14666 13.7882C2.32247 13.964 2.56093 14.0628 2.80957 14.0628H5.625C5.74932 14.0628 5.86855 14.0134 5.95645 13.9255C6.04436 13.8376 6.09375 13.7184 6.09375 13.5941V9.60969C6.09375 9.54753 6.11844 9.48792 6.1624 9.44396C6.20635 9.40001 6.26596 9.37532 6.32812 9.37532H8.67187C8.73403 9.37532 8.79365 9.40001 8.8376 9.44396C8.88155 9.48792 8.90625 9.54753 8.90625 9.60969V13.5941C8.90625 13.7184 8.95563 13.8376 9.04354 13.9255C9.13145 14.0134 9.25068 14.0628 9.375 14.0628H12.1893C12.4379 14.0628 12.6764 13.964 12.8522 13.7882C13.028 13.6124 13.1268 13.374 13.1268 13.1253V8.28958C13.1268 8.25788 13.1204 8.2265 13.108 8.19735C13.0955 8.16819 13.0773 8.14186 13.0544 8.11995L7.66289 2.96751Z" fill="white"/>
<path d="M14.3825 7.15372L12.1911 5.05723V1.87588C12.1911 1.75156 12.1417 1.63234 12.0538 1.54443C11.9659 1.45652 11.8467 1.40713 11.7223 1.40713H10.3161C10.1918 1.40713 10.0725 1.45652 9.98464 1.54443C9.89673 1.63234 9.84735 1.75156 9.84735 1.87588V2.81338L8.15047 1.19092C7.99168 1.03038 7.75555 0.938385 7.50037 0.938385C7.24608 0.938385 7.01053 1.03038 6.85174 1.19122L0.620299 7.15313C0.438073 7.32891 0.415221 7.61807 0.581041 7.8085C0.622681 7.85657 0.673667 7.89566 0.730894 7.9234C0.788122 7.95113 0.850395 7.96694 0.913924 7.96984C0.977453 7.97275 1.04091 7.96269 1.10043 7.9403C1.15995 7.9179 1.21429 7.88362 1.26014 7.83956L7.33924 2.03057C7.38286 1.98885 7.44089 1.96556 7.50125 1.96556C7.56161 1.96556 7.61965 1.98885 7.66327 2.03057L13.7429 7.83956C13.8325 7.92544 13.9525 7.97231 14.0765 7.96989C14.2006 7.96748 14.3186 7.91597 14.4048 7.82667C14.5846 7.64034 14.5697 7.33272 14.3825 7.15372Z" fill="white"/>
</g>
<defs>
<clipPath id="clip0_0_335">
<rect width="15" height="15" fill="white"/>
</clipPath>
</defs>
</svg>
