<svg width="27" height="26" viewBox="0 0 27 26" fill="none" xmlns="http://www.w3.org/2000/svg">
<path d="M20.4284 21.4501C21.357 23.1215 22.3474 23.8025 22.4713 23.8644L22.9355 23.5858L23.4927 23.0287L24.5141 21.6358" stroke="white" stroke-width="0.912409"/>
<line x1="0.557145" y1="0.557061" x2="0.557144" y2="25.2571" stroke="white" stroke-width="1.09489"/>
<line x1="20.5215" y1="3.52847" x2="20.5215" y2="21.7285" stroke="white" stroke-width="0.912409"/>
<line x1="24.4214" y1="3.89993" x2="24.4214" y2="22.1" stroke="white" stroke-width="0.912409"/>
<line x1="17.4573" y1="7.05719" x2="17.4573" y2="25.8144" stroke="white" stroke-width="1.09489"/>
<line y1="25.35" x2="18.0143" y2="25.35" stroke="white" stroke-width="1.27737"/>
<path d="M0 0.649988H11.05" stroke="white" stroke-width="1.27737"/>
<path d="M11.0503 0.649988L17.4574 6.87144" stroke="white" stroke-width="1.27737" stroke-linecap="round"/>
<line x1="3.71407" y1="5.66413" x2="8.72837" y2="5.66413" stroke="white" stroke-width="0.912409"/>
<line x1="20.0572" y1="3.43564" x2="24.8858" y2="3.43564" stroke="white" stroke-width="0.912409"/>
<path d="M3.71407 10.3071H13.6498" stroke="white" stroke-width="0.912409"/>
<path d="M20.0572 6.31427H26.7429" stroke="white" stroke-width="0.912409"/>
<path d="M3.71407 13.0929H13.6498" stroke="white" stroke-width="0.912409"/>
<path d="M3.71407 15.8785H13.6498" stroke="white" stroke-width="0.912409"/>
<path d="M3.71407 18.3858H8.72837" stroke="white" stroke-width="0.912409"/>
<line x1="22.3785" y1="23.9574" x2="22.3785" y2="25.8145" stroke="white" stroke-width="0.912409"/>
<line x1="11.4216" y1="1.29998" x2="11.4216" y2="7.24285" stroke="white" stroke-width="0.912409"/>
<line x1="26.2784" y1="5.94281" x2="26.2784" y2="13" stroke="white" stroke-width="0.912409"/>
<line x1="11.5144" y1="6.7785" x2="17.0859" y2="6.7785" stroke="white" stroke-width="0.912409"/>
</svg>
