<svg width="16" height="16" viewBox="0 0 16 16" fill="none" xmlns="http://www.w3.org/2000/svg">
<path d="M7.452 13.046C7.51316 13.1348 7.595 13.2075 7.69046 13.2576C7.78593 13.3078 7.89216 13.334 8 13.334C8.10785 13.334 8.21408 13.3078 8.30954 13.2576C8.40501 13.2075 8.48684 13.1348 8.548 13.046L14.548 4.37934C14.6175 4.27938 14.6582 4.1623 14.6658 4.04081C14.6733 3.91933 14.6475 3.79809 14.591 3.69027C14.5345 3.58245 14.4496 3.49218 14.3454 3.42925C14.2412 3.36632 14.1217 3.33315 14 3.33334H2C1.87857 3.33385 1.75956 3.36744 1.65579 3.43052C1.55202 3.4936 1.46741 3.58377 1.41105 3.69134C1.35469 3.79891 1.32873 3.91981 1.33594 4.04103C1.34316 4.16226 1.38328 4.27922 1.452 4.37934L7.452 13.046Z" fill="white"/>
</svg>
