<svg width="30" height="30" viewBox="0 0 30 30" fill="none" xmlns="http://www.w3.org/2000/svg">
<g clip-path="url(#clip0_101_972)">
<path d="M14.9994 28.5667C15.5244 28.5547 16.0282 28.3573 16.4216 28.0096C16.8151 27.6619 17.0729 27.1862 17.1494 26.6667H12.7661C12.8448 27.2003 13.1147 27.6872 13.5255 28.0367C13.9363 28.3862 14.4601 28.5745 14.9994 28.5667Z" fill="#656575"/>
<path d="M27.3745 23.4417L27.0912 23.1918C26.2874 22.4756 25.5838 21.6543 24.9995 20.7501C24.3614 19.5022 23.9789 18.1394 23.8745 16.7418V12.6251C23.8711 12.125 23.8266 11.6261 23.7412 11.1334C22.3296 10.8433 21.0617 10.0743 20.152 8.95657C19.2424 7.83887 18.7469 6.44116 18.7495 5.00008V4.47508C17.8795 4.04691 16.9447 3.76534 15.9829 3.64175V2.59175C15.9829 2.29669 15.8657 2.01373 15.657 1.80509C15.4484 1.59646 15.1654 1.47925 14.8704 1.47925C14.5753 1.47925 14.2923 1.59646 14.0837 1.80509C13.8751 2.01373 13.7579 2.29669 13.7579 2.59175V3.68341C11.6043 3.98721 9.63334 5.05987 8.20888 6.70336C6.78442 8.34685 6.00264 10.4502 6.00787 12.6251V16.7418C5.90349 18.1394 5.52101 19.5022 4.88287 20.7501C4.3086 21.652 3.61636 22.4732 2.82453 23.1918L2.5412 23.4417V25.7918H27.3745V23.4417Z" fill="black"/>
<path d="M24.9995 9.16658C27.3007 9.16658 29.1662 7.30111 29.1662 4.99992C29.1662 2.69873 27.3007 0.833252 24.9995 0.833252C22.6983 0.833252 20.8328 2.69873 20.8328 4.99992C20.8328 7.30111 22.6983 9.16658 24.9995 9.16658Z" fill="#FF2727"/>
</g>
<defs>
<clipPath id="clip0_101_972">
<rect width="30" height="30" fill="white"/>
</clipPath>
</defs>
</svg>
