<svg width="24" height="24" viewBox="0 0 24 24" fill="none" xmlns="http://www.w3.org/2000/svg">
<path d="M11.9999 8.25021C11.2583 8.25021 10.5332 8.47015 9.91655 8.8822C9.29987 9.29426 8.81922 9.87993 8.53539 10.5651C8.25157 11.2504 8.1773 12.0044 8.322 12.7318C8.46669 13.4592 8.82385 14.1274 9.34829 14.6519C9.87274 15.1763 10.5409 15.5335 11.2684 15.6782C11.9958 15.8229 12.7498 15.7486 13.435 15.4648C14.1202 15.1809 14.7059 14.7003 15.118 14.0836C15.53 13.4669 15.7499 12.7419 15.7499 12.0002C15.747 11.0066 15.3509 10.0545 14.6483 9.35184C13.9457 8.64922 12.9936 8.25318 11.9999 8.25021ZM20.0962 12.0002C20.0942 12.3506 20.0686 12.7005 20.0193 13.0474L22.3017 14.8343C22.4011 14.9164 22.468 15.0311 22.4906 15.158C22.5132 15.2849 22.4899 15.4158 22.4249 15.5271L20.2659 19.2546C20.2002 19.3649 20.0978 19.4486 19.9766 19.4909C19.8553 19.5331 19.7231 19.5313 19.6031 19.4857L16.9195 18.4076C16.3607 18.8379 15.7491 19.195 15.0998 19.4702L14.6985 22.3193C14.6761 22.4469 14.61 22.5627 14.5116 22.647C14.4132 22.7313 14.2886 22.7789 14.159 22.7815H9.84088C9.71369 22.779 9.59108 22.7335 9.49309 22.6523C9.3951 22.5712 9.32751 22.4592 9.30135 22.3347L8.9001 19.4857C8.24894 19.2136 7.63699 18.8559 7.08041 18.4221L4.39682 19.5002C4.27686 19.5459 4.14464 19.5478 4.02342 19.5056C3.90219 19.4634 3.79971 19.3798 3.73401 19.2696L1.57494 15.5426C1.50996 15.4312 1.48667 15.3004 1.50926 15.1735C1.53184 15.0466 1.59882 14.9318 1.69823 14.8497L3.98057 13.0629C3.93189 12.7107 3.90621 12.3557 3.90369 12.0002C3.90564 11.6498 3.93133 11.3 3.98057 10.953L1.69823 9.16615C1.59882 9.08407 1.53184 8.96932 1.50926 8.8424C1.48667 8.71548 1.50996 8.58467 1.57494 8.47334L3.73401 4.74584C3.79964 4.63549 3.90209 4.55183 4.02332 4.50956C4.14455 4.46729 4.27681 4.46912 4.39682 4.51474L7.08041 5.59287C7.63922 5.16256 8.25074 4.80545 8.9001 4.53021L9.30135 1.68115C9.32381 1.55353 9.38988 1.43768 9.48829 1.35338C9.5867 1.26907 9.71133 1.22156 9.84088 1.21896H14.159C14.2862 1.22144 14.4088 1.26696 14.5068 1.34809C14.6048 1.42923 14.6724 1.54118 14.6985 1.66568L15.0998 4.51474C15.7518 4.78661 16.3645 5.1443 16.9218 5.57834L19.6031 4.50021C19.723 4.45455 19.8552 4.45264 19.9765 4.49483C20.0977 4.53701 20.2002 4.62057 20.2659 4.73084L22.4249 8.45834C22.4899 8.56967 22.5132 8.70048 22.4906 8.8274C22.468 8.95432 22.4011 9.06907 22.3017 9.15115L20.0193 10.938C20.068 11.29 20.0937 11.6449 20.0962 12.0002Z" fill="white"/>
</svg>
