<svg width="196" height="57" viewBox="0 0 196 57" fill="none" xmlns="http://www.w3.org/2000/svg">
<g clip-path="url(#clip0_231_1255)">
<path d="M132.877 10C120.882 10 113.635 18.507 113.635 27.8104C113.635 37.1138 120.889 46.2 132.877 46.2C144.865 46.2 152.119 37.1138 152.119 27.8104C152.126 18.507 144.872 10 132.877 10ZM132.877 41.3202C124.789 41.3202 120.325 34.4531 120.325 27.8122C120.325 21.1695 124.789 14.8671 132.877 14.8671C140.964 14.8671 145.43 21.1623 145.43 27.8104C145.43 34.4531 140.971 41.3184 132.877 41.3184V41.3202ZM104.739 27.7145C106.388 27.7145 109.191 25.1189 109.191 20.5288C109.191 14.6028 105.92 10.543 96.9434 10.543H77.9606V45.6389H96.9434C104.734 45.6389 110.854 42.942 110.854 35.3816C110.859 30.5163 107.104 27.7145 104.739 27.7145ZM83.8016 15.944H96.9506C101.044 15.944 103.071 17.0789 103.071 20.5342C103.071 23.9913 101.044 25.023 96.9506 25.023H83.8016V15.944ZM96.9506 40.2433H83.8016V30.415H96.9506C101.044 30.415 104.739 31.6585 104.739 35.3834C104.739 39.103 101.044 40.2433 96.9506 40.2433ZM77.966 10.5448L47.546 45.6407H41.471V15.9459H13.8158V25.1262H33.0704V30.5254H13.8158V40.2451H37.2842V45.6443H8V10.5466H47.2796V37.5645L70.7012 10.543L77.966 10.5448ZM188 45.6407H180.733L169.156 32.2865L157.576 45.6425H150.304L165.52 28.0928L150.308 10.5448H157.589L169.154 23.8936L180.721 10.5448H188L172.792 28.0873L188 45.6407Z" fill="#64FFAF"/>
</g>
<defs>
<clipPath id="clip0_231_1255">
<rect width="180" height="36.2" fill="white" transform="translate(8 10)"/>
</clipPath>
</defs>
</svg>
